# xmcd
#
# Track frame offsets:
#	150
#	21038
#	44701
#	62716
#	78363
#	97195
#	118104
#	139130
#	164627
#	185537
#
# Disc length: 2788 seconds
#
# Revision: 1
# Processed by: cddbd v1.5.2PL0 Copyright (c) Steve Scherf et al.
# Submitted via: audiograbber 1.83.01
#
DISCID=900ae20a
DTITLE=Various Artist - Der deutsche Hitmix Vol.2 - Die Party 2013 - CD3
DYEAR=2012
DGENRE=Schlager
TTITLE0=Block A - Einen Stern (...der deinen Namen trägt) - DJ Ötzi and Nike P.  
TTITLE0=Ich darf mich nicht in dich verlieben - Claudia Jung     Jugendliebe
TTITLE0=Marcus Luca     So ein schöner Tag (Fliegerlied) - Tim Toupet
TTITLE1=Block B - Anita - Costa Cordalis     Allein wegen Dir - Andreas Martin 
TTITLE1=Delilah - Donky Doris     Allee Allee - Tim Toupet
TTITLE2=Block C - Sie tanzt den Rhytmus dieser Nacht - Sandy Wagner     Amore (
TTITLE2=nie mehr allein) - Rosanna Rocci     So eine Nacht - Olaf Henning   
TTITLE2=Dann geh doch - Howard Carpendale
TTITLE3=Block D - Und wenn Tirol am Nordpol wär - G.G. Anderson     Italienisch
TTITLE3=e Sehnsucht - Oliver Frank     Das ganz große Glück (im Zug  nach Osnab
TTITLE3=rück) - Cliff and Rexonah     Wieder alles im Griff - Jürgen Drews
TTITLE4=Block E - Keiner liebt dich - Achim Petry     Wie ein Komet - Achim Pet
TTITLE4=ry     Das hat mir gerade noch gefehlt - Achim Petry     Das Wunder kam
TTITLE4=Achim Petry
TTITLE5=Block F - Wir haben ein Idol - Lord Ulli     Ohne Dich kann ich nicht s
TTITLE5=chlafen - Mike Bauhaus     Guten Morgen, liebe Sorgen - Jürgen von der 
TTITLE5=Lippe     Ganz in Weiß - Roy Black
TTITLE6=Block G - Co-Co (ho chi kaka ho) - Wolfgang Petry     The Boxer - Block
TTITLE6=house Gang     König von Mallorca - Jürgen Drews     Schenk mir diese e
TTITLE6=ine Nacht - Andreas Martin
TTITLE7=Block H - Ein Schiff wird kommen - Lale Anderson     Eins, Zwei, Drei Z
TTITLE7=auberei - Hänsel and Gretel     Wahnsinn (...Hölle, Hölle, Hölle) - Lolli
TTITLE7=es     Blinder Passagier - Olaf Henning
TTITLE8=Block I - Du bist viel zu schön - Scheunenrocker     Schön ist es auf d
TTITLE8=er Welt zu sein - Guildo Horn and die orthopädischen Strümpfe     Erst wi
TTITLE8=llst Du mich, dann willst Du nicht - Bernhard Brink     Du weiß das ich
TTITLE8=Dich liebe - Michael Morgan
TTITLE9=Block J - Party, Palmen, Weiber und´n Bier - Peter Wackel     Ich will 
TTITLE9=nach Hause zu Mama - Olaf Henning     Ballermann - Wolfgang Petry     S
TTITLE9=uperjeilezick - Brings
EXTD=Luxusausgabe über 160 Hits auf 4 CDs
EXTT0=
EXTT1=
EXTT2=
EXTT3=
EXTT4=
EXTT5=
EXTT6=
EXTT7=
EXTT8=
EXTT9=
PLAYORDER=
